<?xml version="1.0" encoding="utf-8"?>
<!-- Generator: Adobe Illustrator 22.0.0, SVG Export Plug-In . SVG Version: 6.00 Build 0)  -->
<svg version="1.1" id="Layer_1" xmlns="http://www.w3.org/2000/svg" xmlns:xlink="http://www.w3.org/1999/xlink" x="0px" y="0px"
	 viewBox="0 0 654 188" style="enable-background:new 0 0 654 188;" xml:space="preserve">
<style type="text/css">
	.st0{display:none;fill:#E0E0E0;}
	.st1{fill:#7D3C98;}
	.st2{fill:#515151;}
</style>
<g>
	<rect class="st0" width="654" height="188"/>
	<g>
		<g>
			<g>
				<g>
					<path d="M115.2,52.7H88.6c-1.8,0-3.3-1.5-3.3-3.3s1.5-3.3,3.3-3.3h26.6c1.8,0,3.3,1.5,3.3,3.3
						C118.6,51.2,117.1,52.7,115.2,52.7z"/>
				</g>
				<g>
					<path d="M115.2,98.7H88.6c-1.8,0-3.3-1.5-3.3-3.3v-23c0-1.8,1.5-3.3,3.3-3.3h26.6c1.8,0,3.3,1.5,3.3,3.3s-1.5,3.3-3.3,3.3H92
						V92h23.2c1.8,0,3.3,1.5,3.3,3.3C118.6,97.2,117.1,98.7,115.2,98.7z"/>
				</g>
			</g>
			<g>
				<g>
					<path d="M71.5,52.7H41.3c-1.8,0-3.3-1.5-3.3-3.3s1.5-3.3,3.3-3.3h30.2c1.8,0,3.3,1.5,3.3,3.3C74.9,51.2,73.4,52.7,71.5,52.7z"
						/>
				</g>
				<g>
					<path d="M56.4,98.7c-1.8,0-3.3-1.5-3.3-3.3V61.7c0-1.8,1.5-3.3,3.3-3.3s3.3,1.5,3.3,3.3v33.7C59.8,97.2,58.3,98.7,56.4,98.7z"
						/>
				</g>
			</g>
			<g>
				<g>
					<path d="M408.8,52.7h-30.2c-1.8,0-3.3-1.5-3.3-3.3s1.5-3.3,3.3-3.3h30.2c1.8,0,3.3,1.5,3.3,3.3
						C412.2,51.2,410.7,52.7,408.8,52.7z"/>
				</g>
				<g>
					<path d="M393.7,98.7c-1.8,0-3.3-1.5-3.3-3.3V61.7c0-1.8,1.5-3.3,3.3-3.3s3.3,1.5,3.3,3.3v33.7
						C397.1,97.2,395.6,98.7,393.7,98.7z"/>
				</g>
			</g>
			<g>
				<g>
					<path d="M195.3,98.7c-1.8,0-3.3-1.5-3.3-3.3v-46c0-1.8,1.5-3.3,3.3-3.3s3.3,1.5,3.3,3.3v46C198.6,97.2,197.1,98.7,195.3,98.7z"
						/>
				</g>
				<g>
					<path d="M228.1,98.7c-1.8,0-3.3-1.5-3.3-3.3v-46c0-1.8,1.5-3.3,3.3-3.3s3.3,1.5,3.3,3.3v46C231.5,97.2,230,98.7,228.1,98.7z"/>
				</g>
			</g>
			<g>
				<g>
					<path d="M276.1,98.7c-1.8,0-3.3-1.5-3.3-3.3v-46c0-1.8,1.5-3.3,3.3-3.3s3.3,1.5,3.3,3.3v46C279.4,97.2,277.9,98.7,276.1,98.7z"
						/>
				</g>
				<g>
					<path d="M311.6,98.7c-1,0-2-0.5-2.7-1.3l-24.7-32.5c-1.1-1.5-0.8-3.6,0.6-4.7c1.5-1.1,3.6-0.8,4.7,0.6l18.7,24.6V49.3
						c0-1.8,1.5-3.3,3.3-3.3s3.3,1.5,3.3,3.3v46c0,1.4-0.9,2.7-2.3,3.2C312.4,98.7,312,98.7,311.6,98.7z"/>
				</g>
			</g>
			<g>
				<g>
					<path d="M517.3,98.7c-1.8,0-3.3-1.5-3.3-3.3v-46c0-1.8,1.5-3.3,3.3-3.3s3.3,1.5,3.3,3.3v46C520.7,97.2,519.2,98.7,517.3,98.7z"
						/>
				</g>
				<g>
					<path d="M552.9,98.7c-1,0-2-0.5-2.7-1.3l-24.7-32.5c-1.1-1.5-0.8-3.6,0.6-4.7c1.5-1.1,3.6-0.8,4.7,0.6l18.7,24.6V49.3
						c0-1.8,1.5-3.3,3.3-3.3s3.3,1.5,3.1,3.3v46c0.2,1.4-0.7,2.7-2.1,3.2C553.6,98.7,553.2,98.7,552.9,98.7z"/>
				</g>
			</g>
			<g>
				<path d="M428.3,98.7c-1.8,0-3.3-1.5-3.3-3.3v-46c0-1.8,1.5-3.3,3.3-3.3s3.3,1.5,3.3,3.3v46C431.6,97.2,430.1,98.7,428.3,98.7z"
					/>
			</g>
			<g>
				<path d="M216.5,75.7h-9.8c-1.8,0-3.3-1.5-3.3-3.3s1.5-3.3,3.3-3.3h9.8c1.8,0,3.3,1.5,3.3,3.3S218.3,75.7,216.5,75.7z"/>
			</g>
			<g>
				<path d="M371.3,98.7c-1.3,0-2.5-0.8-3.1-2l-17-39l-15,34.3h17.1c1.8,0,3.3,1.5,3.3,3.3s-1.5,3.3-3.3,3.3h-22.2
					c-1.1,0-2.2-0.6-2.8-1.5s-0.7-2.1-0.3-3.2l20.1-46c0.5-1.2,1.7-2,3.1-2s2.5,0.8,3.1,2l20.1,46c0.7,1.7,0,3.7-1.7,4.4
					C372.2,98.6,371.7,98.7,371.3,98.7z"/>
			</g>
			<g>
				<g>
					<path class="st1" d="M156.1,98.7c-14.5,0-26.4-11.8-26.4-26.4c0-14.5,11.8-26.4,26.4-26.4c7.4,0,14.5,3.1,19.4,8.5
						c1.2,1.4,1.2,3.5-0.2,4.7c-1.4,1.3-3.5,1.2-4.7-0.2c-3.7-4.1-9-6.4-14.5-6.4c-10.8,0-19.7,8.8-19.7,19.7
						c0,10.8,8.8,19.7,19.7,19.7c6,0,11.5-2.7,15.3-7.3c1.2-1.4,3.3-1.7,4.7-0.5s1.7,3.3,0.5,4.7C171.5,95.2,164.1,98.7,156.1,98.7z
						"/>
				</g>
				<g>
					<path class="st1" d="M156.3,87.8c-8.5,0-15.4-6.9-15.4-15.4S147.8,57,156.3,57c4.3,0,8.4,1.8,11.3,5c1.2,1.4,1.2,3.5-0.2,4.7
						s-3.5,1.2-4.7-0.2c-1.6-1.8-4-2.8-6.4-2.8c-4.8,0-8.7,3.9-8.7,8.7s3.9,8.7,8.7,8.7c2.6,0,5.1-1.2,6.8-3.2
						c1.2-1.4,3.3-1.7,4.7-0.5s1.7,3.3,0.5,4.7C165.3,85.7,160.9,87.8,156.3,87.8z"/>
				</g>
				<g>
					<g>
						<path class="st1" d="M471.6,87.5c-8.4,0-15.1-6.8-15.1-15.1c0-8.4,6.8-15.1,15.1-15.1c8.4,0,15.1,6.8,15.1,15.1
							C486.8,80.7,480,87.5,471.6,87.5z M471.6,63.9c-4.7,0-8.5,3.8-8.5,8.5s3.8,8.5,8.5,8.5s8.5-3.8,8.5-8.5S476.3,63.9,471.6,63.9
							z"/>
					</g>
					<g>
						<g>
							<path class="st1" d="M471.6,98.7c-14.5,0-26.4-11.8-26.4-26.4c0-11.3,7.2-21.4,17.9-25c1.8-0.6,3.7,0.4,4.2,2.1
								c0.6,1.8-0.4,3.7-2.1,4.2c-8,2.7-13.4,10.2-13.4,18.6c0,10.8,8.8,19.7,19.7,19.7c10.8,0,19.7-8.8,19.7-19.7
								c0-8.4-5.4-15.9-13.4-18.6c-1.8-0.6-2.7-2.5-2.1-4.2c0.6-1.8,2.5-2.7,4.2-2.1c10.7,3.6,17.9,13.7,17.9,25
								C498,86.9,486.2,98.7,471.6,98.7z"/>
						</g>
					</g>
				</g>
			</g>
		</g>
	</g>
	<g>
		<path class="st2" d="M226.3,120.9h4.2l4.3,10.6l4.7-10.6h4.2l-10.3,23h-4.3l3.4-7.4L226.3,120.9z"/>
		<path class="st2" d="M254,120.5c1.6,0,3,0.4,4.4,1.2s2.4,1.9,3.2,3.2c0.8,1.4,1.2,2.8,1.2,4.4c0,1.6-0.4,3.1-1.2,4.5
			s-1.8,2.5-3.2,3.2c-1.3,0.8-2.8,1.2-4.4,1.2c-2.4,0-4.4-0.9-6.1-2.6c-1.7-1.7-2.5-3.8-2.5-6.3c0-2.6,0.9-4.8,2.8-6.6
			C249.9,121.3,251.8,120.5,254,120.5z M254,124.5c-1.3,0-2.4,0.5-3.2,1.4c-0.9,0.9-1.3,2.1-1.3,3.5c0,1.5,0.4,2.6,1.3,3.6
			c0.8,0.9,1.9,1.4,3.2,1.4s2.4-0.5,3.2-1.4c0.9-0.9,1.3-2.1,1.3-3.5s-0.4-2.6-1.3-3.5C256.4,124.9,255.4,124.5,254,124.5z"/>
		<path class="st2" d="M266.1,120.9h4.2v8.1c0,1.6,0.1,2.7,0.3,3.3s0.6,1.1,1,1.4c0.5,0.3,1.1,0.5,1.7,0.5c0.7,0,1.3-0.2,1.8-0.5
			s0.8-0.8,1.1-1.5c0.2-0.5,0.3-1.5,0.3-3.1v-8.2h4.1v7.1c0,2.9-0.2,4.9-0.7,6c-0.6,1.3-1.4,2.3-2.5,3s-2.5,1.1-4.1,1.1
			c-1.8,0-3.3-0.4-4.4-1.2c-1.1-0.8-1.9-2-2.4-3.4c-0.3-1-0.5-2.9-0.5-5.6v-7H266.1z"/>
		<path class="st2" d="M283.8,120.9h3.6v2.1c0.4-0.8,0.9-1.5,1.5-1.9s1.3-0.6,2.1-0.6c0.5,0,1.1,0.1,1.7,0.4l-1.3,3.6
			c-0.5-0.2-0.9-0.4-1.2-0.4c-0.6,0-1.2,0.4-1.6,1.2c-0.4,0.8-0.7,2.4-0.7,4.7v0.8v6.8h-4.1V120.9z"/>
		<path class="st2" d="M307.5,120.9v1.9c0.7-0.8,1.6-1.3,2.4-1.7c0.9-0.4,1.8-0.6,2.8-0.6c2.2,0,4,0.8,5.5,2.5s2.3,3.8,2.3,6.4
			c0,2.5-0.8,4.6-2.3,6.3c-1.6,1.7-3.4,2.5-5.5,2.5c-1,0-1.8-0.2-2.7-0.5c-0.8-0.3-1.6-0.9-2.4-1.7v7.9h-4.1v-23L307.5,120.9
			L307.5,120.9z M311.9,124.4c-1.3,0-2.4,0.5-3.2,1.4c-0.9,0.9-1.3,2.1-1.3,3.6s0.4,2.7,1.3,3.6c0.9,0.9,1.9,1.4,3.2,1.4
			s2.3-0.5,3.2-1.4s1.3-2.1,1.3-3.6c0-1.4-0.4-2.6-1.3-3.5C314.2,124.9,313.2,124.4,311.9,124.4z"/>
		<path class="st2" d="M323,120.9h3.6v2.1c0.4-0.8,0.9-1.5,1.5-1.9s1.3-0.6,2.1-0.6c0.5,0,1.1,0.1,1.7,0.4l-1.3,3.6
			c-0.5-0.2-0.9-0.4-1.2-0.4c-0.6,0-1.2,0.4-1.6,1.2c-0.4,0.8-0.7,2.4-0.7,4.7v0.8v6.8H323L323,120.9L323,120.9z"/>
		<path class="st2" d="M341.6,120.5c1.6,0,3,0.4,4.4,1.2s2.4,1.9,3.2,3.2c0.8,1.4,1.2,2.8,1.2,4.4c0,1.6-0.4,3.1-1.2,4.5
			c-0.8,1.4-1.8,2.5-3.2,3.2c-1.3,0.8-2.8,1.2-4.4,1.2c-2.4,0-4.4-0.9-6.1-2.6c-1.7-1.7-2.5-3.8-2.5-6.3c0-2.6,0.9-4.8,2.8-6.6
			C337.6,121.3,339.5,120.5,341.6,120.5z M341.7,124.5c-1.3,0-2.4,0.5-3.2,1.4c-0.9,0.9-1.3,2.1-1.3,3.5c0,1.5,0.4,2.6,1.3,3.6
			c0.8,0.9,1.9,1.4,3.2,1.4c1.3,0,2.4-0.5,3.2-1.4c0.9-0.9,1.3-2.1,1.3-3.5s-0.4-2.6-1.3-3.5C344.1,124.9,343,124.5,341.7,124.5z"/>
		<path class="st2" d="M357.9,120.9v1.9c0.7-0.8,1.6-1.3,2.4-1.7c0.9-0.4,1.8-0.6,2.8-0.6c2.2,0,4,0.8,5.5,2.5s2.3,3.8,2.3,6.4
			c0,2.5-0.8,4.6-2.3,6.3c-1.6,1.7-3.4,2.5-5.5,2.5c-1,0-1.8-0.2-2.7-0.5c-0.8-0.3-1.6-0.9-2.4-1.7v7.9h-4.1v-23L357.9,120.9
			L357.9,120.9z M362.2,124.4c-1.3,0-2.4,0.5-3.2,1.4c-0.9,0.9-1.3,2.1-1.3,3.6s0.4,2.7,1.3,3.6c0.9,0.9,1.9,1.4,3.2,1.4
			c1.3,0,2.3-0.5,3.2-1.4c0.9-0.9,1.3-2.1,1.3-3.6c0-1.4-0.4-2.6-1.3-3.5C364.6,124.9,363.5,124.4,362.2,124.4z"/>
		<path class="st2" d="M390.8,130.6h-13.3c0.2,1.2,0.7,2.1,1.5,2.9c0.8,0.7,1.9,1.1,3.2,1.1c1.5,0,2.9-0.6,4-1.7l3.5,1.7
			c-0.9,1.3-1.9,2.2-3.1,2.8s-2.7,0.9-4.3,0.9c-2.6,0-4.7-0.8-6.3-2.5c-1.6-1.7-2.4-3.7-2.4-6.3s0.8-4.7,2.4-6.4s3.7-2.5,6.1-2.5
			c2.6,0,4.7,0.8,6.3,2.5c1.6,1.7,2.4,3.9,2.4,6.7L390.8,130.6z M386.7,127.2c-0.3-0.9-0.8-1.7-1.6-2.3c-0.8-0.6-1.7-0.9-2.8-0.9
			c-1.2,0-2.2,0.3-3,1c-0.5,0.4-1.1,1.1-1.5,2.2H386.7z"/>
		<path class="st2" d="M393.2,120.9h3.6v2.1c0.4-0.8,0.9-1.5,1.5-1.9s1.3-0.6,2.1-0.6c0.5,0,1.1,0.1,1.7,0.4l-1.3,3.6
			c-0.5-0.2-0.9-0.4-1.2-0.4c-0.6,0-1.2,0.4-1.6,1.2s-0.7,2.4-0.7,4.7v0.8v6.8h-4.1V120.9z"/>
		<path class="st2" d="M413,115h4.2v22.7H413V115z"/>
		<path class="st2" d="M419.8,115h12.3v4.3H428v18.5h-4.3v-18.5h-4L419.8,115L419.8,115z"/>
		<path class="st2" d="M453.4,123.3l-2.6,2.6c-1-1.1-2-1.6-2.8-1.6c-0.5,0-0.8,0.1-1.1,0.3c-0.3,0.2-0.4,0.5-0.4,0.8
			c0,0.2,0.1,0.4,0.3,0.6c0.2,0.2,0.6,0.5,1.2,0.8l1.5,0.8c1.6,0.8,2.7,1.6,3.3,2.5c0.6,0.8,0.9,1.8,0.9,2.9c0,1.5-0.5,2.7-1.6,3.7
			s-2.5,1.5-4.3,1.5c-2.4,0-4.3-1-5.8-2.9l2.6-2.8c0.5,0.6,1.1,1,1.7,1.4c0.7,0.4,1.2,0.5,1.7,0.5s1-0.1,1.3-0.4
			c0.3-0.3,0.5-0.6,0.5-0.9c0-0.6-0.6-1.3-1.8-1.9l-1.4-0.7c-2.7-1.4-4-3.1-4-5.1c0-1.3,0.5-2.5,1.5-3.4s2.3-1.4,3.9-1.4
			c1.1,0,2.1,0.2,3,0.7S452.7,122.4,453.4,123.3z"/>
		<path class="st2" d="M464.7,120.5c1.6,0,3,0.4,4.4,1.2s2.4,1.9,3.2,3.2c0.8,1.4,1.2,2.8,1.2,4.4c0,1.6-0.4,3.1-1.2,4.5
			c-0.8,1.4-1.8,2.5-3.2,3.2c-1.3,0.8-2.8,1.2-4.4,1.2c-2.4,0-4.4-0.9-6.1-2.6c-1.7-1.7-2.5-3.8-2.5-6.3c0-2.6,0.9-4.8,2.8-6.6
			C460.7,121.3,462.6,120.5,464.7,120.5z M464.8,124.5c-1.3,0-2.4,0.5-3.2,1.4c-0.9,0.9-1.3,2.1-1.3,3.5c0,1.5,0.4,2.6,1.3,3.6
			c0.8,0.9,1.9,1.4,3.2,1.4c1.3,0,2.4-0.5,3.2-1.4c0.9-0.9,1.3-2.1,1.3-3.5s-0.4-2.6-1.3-3.5C467.2,124.9,466.1,124.5,464.8,124.5z"
			/>
		<path class="st2" d="M476.4,114.4h4.1v23.3h-4.1V114.4z"/>
		<path class="st2" d="M484.3,120.9h4.2v8.1c0,1.6,0.1,2.7,0.3,3.3c0.2,0.6,0.6,1.1,1,1.4c0.5,0.3,1.1,0.5,1.7,0.5
			c0.7,0,1.3-0.2,1.8-0.5s0.8-0.8,1.1-1.5c0.2-0.5,0.3-1.5,0.3-3.1v-8.2h4.1v7.1c0,2.9-0.2,4.9-0.7,6c-0.6,1.3-1.4,2.3-2.5,3
			s-2.5,1.1-4.1,1.1c-1.8,0-3.3-0.4-4.4-1.2s-1.9-2-2.4-3.4c-0.3-1-0.5-2.9-0.5-5.6L484.3,120.9L484.3,120.9z"/>
		<path class="st2" d="M503.5,114.7h4.1v6.2h2.5v3.6h-2.5v13.2h-4.1v-13.2h-2.1v-3.6h2.1V114.7z"/>
		<path class="st2" d="M513.9,114c0.7,0,1.3,0.3,1.9,0.8c0.5,0.5,0.8,1.2,0.8,1.9c0,0.8-0.3,1.4-0.8,1.9s-1.1,0.8-1.8,0.8
			c-0.7,0-1.4-0.3-1.9-0.8s-0.8-1.2-0.8-2c0-0.7,0.3-1.4,0.8-1.9C512.6,114.3,513.2,114,513.9,114z M511.8,120.9h4.1v16.8h-4.1
			V120.9z"/>
		<path class="st2" d="M527.5,120.5c1.6,0,3,0.4,4.4,1.2s2.4,1.9,3.2,3.2c0.8,1.4,1.2,2.8,1.2,4.4c0,1.6-0.4,3.1-1.2,4.5
			c-0.8,1.4-1.8,2.5-3.2,3.2c-1.3,0.8-2.8,1.2-4.4,1.2c-2.4,0-4.4-0.9-6.1-2.6c-1.7-1.7-2.5-3.8-2.5-6.3c0-2.6,0.9-4.8,2.8-6.6
			C523.4,121.3,525.4,120.5,527.5,120.5z M527.6,124.5c-1.3,0-2.4,0.5-3.2,1.4s-1.3,2.1-1.3,3.5c0,1.5,0.4,2.6,1.3,3.6
			c0.8,0.9,1.9,1.4,3.2,1.4c1.3,0,2.4-0.5,3.2-1.4c0.9-0.9,1.3-2.1,1.3-3.5s-0.4-2.6-1.3-3.5C530,124.9,528.9,124.5,527.6,124.5z"/>
		<path class="st2" d="M539.6,120.9h4.1v1.7c0.9-0.8,1.8-1.4,2.6-1.7c0.8-0.3,1.5-0.5,2.3-0.5c1.6,0,3,0.6,4.2,1.7
			c1,1,1.4,2.5,1.4,4.4v11.1h-4.1v-7.4c0-2-0.1-3.3-0.3-4c-0.2-0.7-0.5-1.2-0.9-1.5s-1-0.5-1.6-0.5c-0.8,0-1.6,0.3-2.2,0.9
			c-0.6,0.6-1,1.4-1.2,2.4c-0.1,0.5-0.2,1.7-0.2,3.4v6.7h-4.1L539.6,120.9L539.6,120.9z"/>
	</g>
</g>
</svg>
